<?xml version="1.0" standalone="no"?>
<!DOCTYPE svg PUBLIC "-//W3C//DTD SVG 20010904//EN"
 "http://www.w3.org/TR/2001/REC-SVG-20010904/DTD/svg10.dtd">
<svg version="1.0" xmlns="http://www.w3.org/2000/svg"
 width="130.000000pt" height="34.000000pt" viewBox="0 0 130.000000 34.000000"
 preserveAspectRatio="xMidYMid meet">
<metadata>
Created by potrace 1.10, written by Peter Selinger 2001-2011
</metadata>
<g transform="translate(0.000000,34.000000) scale(0.100000,-0.100000)"
fill="#000000" stroke="none">
<path d="M496 253 l-16 -33 63 0 63 0 -4 33 c-3 31 -5 32 -47 32 -39 0 -45 -3
-59 -32z"/>
<path d="M1154 282 l-92 -3 -4 -29 -5 -30 93 0 92 0 7 31 c4 17 5 31 3 32 -1
1 -44 1 -94 -1z"/>
<path d="M67 262 c-33 -36 -22 -42 78 -42 l95 0 0 30 0 30 -78 0 c-64 0 -82
-4 -95 -18z m138 -12 c4 -6 -14 -10 -47 -9 -49 2 -50 2 -18 9 52 11 58 11 65
0z"/>
<path d="M258 250 l-5 -30 94 0 c74 0 93 3 93 14 0 8 3 21 6 30 5 14 -6 16
-89 16 l-95 0 -4 -30z"/>
<path d="M656 264 c-16 -41 -10 -44 89 -44 85 0 95 2 95 18 0 33 -22 42 -101
42 -61 0 -78 -3 -83 -16z"/>
<path d="M860 266 c0 -8 -3 -21 -6 -30 -5 -14 6 -16 89 -16 l95 0 4 30 5 30
-94 0 c-74 0 -93 -3 -93 -14z"/>
<path d="M339 192 c-23 -3 -28 -10 -38 -59 -14 -73 -15 -70 18 -70 27 0 29 3
39 66 6 36 10 65 9 66 -1 0 -14 -1 -28 -3z"/>
<path d="M494 193 c-20 -4 -27 -16 -71 -119 -3 -8 7 -11 28 -9 18 1 35 7 37
14 5 16 62 14 62 -3 0 -8 11 -13 30 -12 l30 1 0 63 0 62 -34 0 c-30 0 -33 -2
-28 -25 3 -21 0 -25 -18 -25 -19 0 -21 4 -15 30 4 17 5 29 3 29 -2 -1 -13 -4
-24 -6z m-13 -76 c-10 -9 -11 -8 -5 6 3 10 9 15 12 12 3 -3 0 -11 -7 -18z m99
1 c0 -16 -3 -19 -11 -11 -6 6 -8 16 -5 22 11 17 16 13 16 -11z"/>
<path d="M734 192 l-92 -3 -6 -52 c-4 -29 -8 -56 -9 -61 -3 -14 47 -15 55 -2
4 6 8 26 8 44 0 30 2 32 36 32 l35 0 -6 -43 c-7 -43 -6 -44 23 -44 28 0 31 4
37 44 3 23 3 48 -1 54 -3 6 0 15 7 20 21 13 10 14 -87 11z"/>
<path d="M906 185 c-2 -7 -7 -37 -11 -67 l-7 -55 31 0 c21 0 31 5 32 16 0 9 4
37 8 63 7 45 7 46 -20 50 -16 3 -30 -1 -33 -7z"/>
<path d="M1101 135 c-6 -34 -11 -64 -11 -67 0 -2 13 -5 30 -5 26 0 30 4 36 36
3 20 8 48 10 62 4 23 1 27 -25 31 -29 4 -30 4 -40 -57z"/>
<path d="M40 182 c0 -20 28 -32 72 -32 26 0 48 -4 48 -10 0 -6 -28 -10 -65
-10 -63 0 -65 -1 -65 -25 0 -14 -1 -28 -2 -31 -2 -3 32 -6 75 -6 88 0 112 13
119 62 8 53 -4 60 -97 60 -47 0 -85 -4 -85 -8z"/>
</g>
</svg>
