<?xml version="1.0" encoding="UTF-8" standalone="no"?>
<svg
   xmlns:dc="http://purl.org/dc/elements/1.1/"
   xmlns:cc="http://creativecommons.org/ns#"
   xmlns:rdf="http://www.w3.org/1999/02/22-rdf-syntax-ns#"
   xmlns:svg="http://www.w3.org/2000/svg"
   xmlns="http://www.w3.org/2000/svg"
   xmlns:sodipodi="http://sodipodi.sourceforge.net/DTD/sodipodi-0.dtd"
   xmlns:inkscape="http://www.inkscape.org/namespaces/inkscape"
   version="1.1"
   x="0px"
   y="0px"
   viewBox="0 0 24 26"
   xml:space="preserve"
   id="svg3736"
   inkscape:version="0.92.1 15371"
   sodipodi:docname="home2.svg"
   width="24"
   height="26"><metadata
     id="metadata3748"><rdf:RDF><cc:Work
         rdf:about=""><dc:format>image/svg+xml</dc:format><dc:type
           rdf:resource="http://purl.org/dc/dcmitype/StillImage" /><dc:title></dc:title></cc:Work></rdf:RDF></metadata><defs
     id="defs3746" /><sodipodi:namedview
     pagecolor="#ffffff"
     bordercolor="#666666"
     borderopacity="1"
     objecttolerance="10"
     gridtolerance="10"
     guidetolerance="10"
     inkscape:pageopacity="0"
     inkscape:pageshadow="2"
     inkscape:window-width="1920"
     inkscape:window-height="1003"
     id="namedview3744"
     showgrid="false"
     inkscape:zoom="11.458817"
     inkscape:cx="-7.2413034"
     inkscape:cy="17.120098"
     inkscape:window-x="0"
     inkscape:window-y="24"
     inkscape:window-maximized="1"
     inkscape:current-layer="svg3736" /><path
     d="M 23.676276,11.135002 12.785032,0.41335235 c -0.422646,-0.406683 -1.007847,-0.406683 -1.430492,0 L 0.46329576,11.135002 c -0.357624,0.332742 -0.455157,0.88731 -0.325112,1.367936 0.162556,0.480625 0.585201,0.813366 1.04035704,0.813366 h 1.072869 V 24.85132 c 0,0.702454 0.487668,1.25702 1.10538,1.25702 H 20.815293 c 0.617712,0 1.10538,-0.554566 1.10538,-1.25702 V 13.316304 h 1.072868 c 0.455157,0 0.877802,-0.332741 1.040358,-0.813366 0.130045,-0.480626 0,-1.035194 -0.357623,-1.367936 z m -3.966363,0.924281 V 23.594299 H 4.4296588 V 12.059283 c 0,-0.443654 -0.195067,-0.850338 -0.520179,-1.072165 l 8.1603062,-7.9857806 8.160306,8.0227516 c -0.325112,0.221827 -0.520179,0.59154 -0.520179,1.035194 z"
     id="path3738"
     inkscape:connector-curvature="0"
     style="stroke-width:0.22426404" /></svg>