<?xml version="1.0" encoding="UTF-8" standalone="no"?>
<svg
   xmlns:dc="http://purl.org/dc/elements/1.1/"
   xmlns:cc="http://creativecommons.org/ns#"
   xmlns:rdf="http://www.w3.org/1999/02/22-rdf-syntax-ns#"
   xmlns:svg="http://www.w3.org/2000/svg"
   xmlns="http://www.w3.org/2000/svg"
   xmlns:sodipodi="http://sodipodi.sourceforge.net/DTD/sodipodi-0.dtd"
   xmlns:inkscape="http://www.inkscape.org/namespaces/inkscape"
   version="1.1"
   x="0px"
   y="0px"
   viewBox="0 0 100 125"
   style="enable-background:new 0 0 100 100;"
   xml:space="preserve"
   id="svg3736"
   inkscape:version="0.91 r13725"
   sodipodi:docname="home.svg"><metadata
     id="metadata3748"><rdf:RDF><cc:Work
         rdf:about=""><dc:format>image/svg+xml</dc:format><dc:type
           rdf:resource="http://purl.org/dc/dcmitype/StillImage" /></cc:Work></rdf:RDF></metadata><defs
     id="defs3746" /><sodipodi:namedview
     pagecolor="#ffffff"
     bordercolor="#666666"
     borderopacity="1"
     objecttolerance="10"
     gridtolerance="10"
     guidetolerance="10"
     inkscape:pageopacity="0"
     inkscape:pageshadow="2"
     inkscape:window-width="1215"
     inkscape:window-height="1000"
     id="namedview3744"
     showgrid="false"
     inkscape:zoom="1.888"
     inkscape:cx="50"
     inkscape:cy="62.5"
     inkscape:window-x="65"
     inkscape:window-y="24"
     inkscape:window-maximized="1"
     inkscape:current-layer="svg3736" /><path
     d="M 97.971836,52.781801 52.694139,1.5032768 c -1.757045,-1.94504759 -4.189877,-1.94504759 -5.946921,0 L 1.4695214,52.781801 c -1.4867308,1.591404 -1.89220242,4.243741 -1.35157281,6.542433 0.67578642,2.298694 2.43283091,3.890095 4.32503331,3.890095 l 4.4601914,0 0,55.168621 c 0,3.35963 2.0273597,6.01196 4.5953477,6.01196 l 72.579472,0 c 2.567989,0 4.595348,-2.65233 4.595348,-6.01196 l 0,-55.168621 4.460191,0 c 1.892203,0 3.649247,-1.591401 4.325034,-3.890095 0.540629,-2.298692 0,-4.951029 -1.48673,-6.542433 z m -16.489191,4.420564 0,55.168615 -63.523932,0 0,-55.168615 c 0,-2.121871 -0.810945,-4.066919 -2.162518,-5.127852 l 33.924483,-38.19366 33.924484,38.370482 c -1.351574,1.060934 -2.162517,2.829159 -2.162517,4.95103 z"
     id="path3738"
     inkscape:connector-curvature="0" /></svg>