<?xml version="1.0" encoding="UTF-8" standalone="no"?>
<svg
   xmlns:dc="http://purl.org/dc/elements/1.1/"
   xmlns:cc="http://creativecommons.org/ns#"
   xmlns:rdf="http://www.w3.org/1999/02/22-rdf-syntax-ns#"
   xmlns:svg="http://www.w3.org/2000/svg"
   xmlns="http://www.w3.org/2000/svg"
   xmlns:sodipodi="http://sodipodi.sourceforge.net/DTD/sodipodi-0.dtd"
   xmlns:inkscape="http://www.inkscape.org/namespaces/inkscape"
   version="1.0"
   width="200.000000pt"
   height="200.000000pt"
   viewBox="0 0 200.000000 200.000000"
   preserveAspectRatio="xMidYMid meet"
   id="svg159"
   sodipodi:docname="mmf_icon3.svg"
   inkscape:version="0.92.1 15371">
  <defs
     id="defs163" />
  <sodipodi:namedview
     pagecolor="#ffffff"
     bordercolor="#666666"
     borderopacity="1"
     objecttolerance="10"
     gridtolerance="10"
     guidetolerance="10"
     inkscape:pageopacity="0"
     inkscape:pageshadow="2"
     inkscape:window-width="1920"
     inkscape:window-height="1003"
     id="namedview161"
     showgrid="false"
     inkscape:zoom="3.06"
     inkscape:cx="80.718954"
     inkscape:cy="144.22186"
     inkscape:window-x="0"
     inkscape:window-y="24"
     inkscape:window-maximized="1"
     inkscape:current-layer="svg159" />
  <metadata
     id="metadata153">
Created by potrace 1.10, written by Peter Selinger 2001-2011
<rdf:RDF>
  <cc:Work
     rdf:about="">
    <dc:format>image/svg+xml</dc:format>
    <dc:type
       rdf:resource="http://purl.org/dc/dcmitype/StillImage" />
    <dc:title></dc:title>
  </cc:Work>
</rdf:RDF>
</metadata>
  <g
     transform="translate(0.000000,200.000000) scale(0.050000,-0.050000)"
     fill="#000000"
     stroke="none"
     id="g157">
    <path
       d="M675 2116 l5 -1145 253 -44 c139 -24 269 -48 290 -54 40 -10 56 1053 18 1237 -14 66 -17 70 -19 24 -2 -47 -9 -55 -42 -44 -39 12 -40 4 -40 -479 0 -405 -5 -491 -28 -491 -15 0 -32 -18 -38 -40 -6 -24 -27 -40 -53 -40 -27 0 -38 8 -29 23 10 16 -7 19 -57 9 -154 -29 -160 0 -152 738 3 352 -1 764 -11 915 -15 242 -13 274 13 264 37 -14 358 -544 752 -1242 l183 -323 0 -318 0 -319 145 -22 c109 -17 180 -17 280 0 l135 23 0 314 0 313 94 168 c269 481 325 589 316 613 -6 17 -1 21 15 11 18 -10 17 -5 -1 18 -28 34 -93 26 -71 -9 6 -11 -8 -9 -32 4 -41 21 -43 20 -21 -20 13 -24 18 -49 12 -55 -7 -6 -12 -1 -12 12 0 53 -78 8 -89 -53 -5 -24 -36 -77 -68 -119 -33 -41 -75 -113 -94 -160 -18 -47 -42 -85 -52 -85 -11 0 -14 9 -7 20 7 11 0 20 -16 20 -15 0 -38 23 -51 51 -30 66 -29 69 12 69 30 1 31 3 5 20 -25 17 -26 23 -2 38 15 10 22 26 15 37 -7 11 6 44 29 73 22 28 35 52 28 52 -20 0 61 137 122 206 11 13 17 36 13 49 -5 15 9 25 35 25 25 0 37 9 29 21 -23 38 8 115 46 112 25 -2 33 9 29 42 -4 25 3 45 15 45 11 0 21 12 21 27 0 33 56 148 80 163 10 6 14 29 10 51 -4 22 -1 36 8 30 22 -14 85 58 78 88 -3 14 12 35 34 48 21 13 51 37 66 53 15 17 21 19 14 5 -7 -14 -4 -25 7 -25 11 0 23 8 26 18 4 9 72 24 152 32 177 17 177 16 55 -199 -49 -87 -90 -160 -90 -163 0 -3 -67 -122 -150 -264 l-150 -259 0 -680 c0 -654 2 -681 37 -672 21 6 152 30 291 54 l254 44 4 1144 4 1145 -293 0 -294 0 -57 -105 c-32 -58 -199 -358 -372 -668 l-315 -562 96 -168 c124 -217 188 -366 132 -310 -40 39 -70 -78 -70 -277 -1 -116 -7 -214 -15 -219 -46 -28 -76 61 -96 289 -19 218 -46 150 -46 -116 0 -285 -12 -311 -95 -215 -47 54 -78 530 -35 532 11 0 4 9 -15 21 -23 13 -32 37 -27 67 6 33 -1 45 -24 43 -18 -1 -33 12 -34 28 -2 55 -35 130 -73 163 -21 18 -32 46 -26 63 8 20 -3 35 -30 44 -23 7 -36 21 -30 31 6 11 2 19 -9 19 -12 0 -27 25 -35 55 -11 48 -41 93 -128 200 -12 14 -16 33 -10 43 6 10 -12 33 -40 51 -28 18 -44 43 -37 55 8 12 5 17 -5 10 -22 -13 -73 42 -83 87 -3 16 -19 39 -35 51 -17 13 -24 37 -17 55 7 18 3 33 -8 33 -21 0 -211 291 -217 330 -1 11 -3 32 -5 46 -1 15 -9 22 -17 17 -8 -5 -27 4 -41 19 -15 16 -17 28 -5 28 12 0 21 14 21 30 0 17 -11 30 -25 30 -17 1 -15 7 5 20 17 11 66 19 110 19 67 0 181 -37 120 -39 -11 0 9 -19 45 -42 36 -23 61 -49 55 -57 -5 -9 9 -32 31 -52 40 -36 40 -36 28 2 -10 31 -8 33 8 10 13 -19 14 -41 1 -65 -15 -28 -12 -36 12 -36 18 0 27 -9 20 -20 -7 -11 -1 -20 14 -20 19 -1 18 -6 -4 -20 -26 -17 -26 -19 3 -20 20 0 37 -23 44 -61 7 -34 21 -56 32 -50 10 7 29 -23 40 -65 11 -43 38 -93 59 -113 22 -19 36 -51 32 -71 -4 -20 11 -53 34 -73 22 -20 63 -76 91 -123 35 -61 60 -83 83 -75 26 9 26 6 -3 -16 -33 -25 -33 -30 -3 -55 18 -14 40 -48 50 -73 23 -62 152 -60 142 2 -4 20 -163 317 -354 660 l-348 623 -296 5 -296 6 5 -1145z m2455 504 c-6 -9 -1 -20 10 -23 21 -8 21 -1 14 -827 -6 -667 4 -633 -184 -657 -44 -5 -64 -6 -45 0 37 11 47 39 17 50 -9 4 -22 216 -29 473 -6 256 -17 474 -23 485 -7 10 -6 29 2 42 8 13 5 18 -6 11 -12 -8 -20 14 -21 52 0 35 4 52 9 38 6 -15 46 43 89 129 43 85 88 161 99 168 12 8 22 21 22 31 2 39 21 67 38 57 10 -7 14 -19 8 -29z m-2355 -465 c-5 -47 -8 -8 -8 85 0 94 3 132 8 85 4 -47 4 -123 0 -170z"
       id="path155" />
  </g>
  <ellipse
     style="opacity:0.97000002;fill:#000000;fill-opacity:1;stroke:none;stroke-width:0.75000006;stroke-opacity:1"
     id="path6420"
     cx="59.313728"
     cy="88.725494"
     rx="2.9411767"
     ry="12.009804" />
  <ellipse
     style="opacity:0.97000002;fill:#000000;fill-opacity:1;stroke:none;stroke-width:0.75000006;stroke-opacity:1"
     id="path6422"
     cx="98.897064"
     cy="102.57354"
     rx="4.0441179"
     ry="2.0833333" />
  <ellipse
     style="opacity:0.97000002;fill:#ff0000;fill-opacity:1;stroke:none;stroke-width:0.75000006;stroke-opacity:1"
     id="path6424"
     cx="135.16667"
     cy="88.492653"
     rx="1.8333308"
     ry="0.25735125" />
  <path
     style="opacity:0.97000002;fill:#ff0000;fill-opacity:1;stroke:none;stroke-width:0.3267974;stroke-opacity:1"
     d="m 66.307196,196.61147 c -0.07858,-0.22467 -0.110732,-0.70261 -0.07144,-1.06209 0.08123,-0.74324 -0.582666,-0.77806 -6.301113,-0.33048 -2.906142,0.22746 -3.1626,0.19682 -4.012386,-0.47945 -1.060631,-0.84406 -1.953203,-2.50953 -2.462758,-4.59532 -0.980803,-4.01477 -1.109091,-9.63196 -1.201338,-52.60129 -0.05772,-26.88748 -0.230871,-45.75913 -0.45126,-49.183004 -0.51693,-8.030811 -0.830669,-18.862547 -0.575767,-19.878157 0.120576,-0.480412 0.425556,-0.873477 0.677734,-0.873477 1.332583,0 6.87704,8.340559 19.478969,29.30233 l 5.140561,8.550698 -0.442036,1.90158 c -1.195556,5.14311 -1.362857,14.14656 -0.369519,19.88592 0.301028,1.73929 0.343241,8.90617 0.176119,29.90196 -0.237904,29.88847 -0.478318,34.64052 -1.752523,34.64052 -0.767495,0 -2.387422,1.62608 -2.604489,2.61438 -0.327166,1.48957 -1.888973,2.61438 -3.630102,2.61438 -0.87055,0 -1.513208,-0.16422 -1.59865,-0.4085 z"
     id="path6426"
     inkscape:connector-curvature="0"
     transform="scale(0.75000003)" />
  <path
     style="opacity:0.97000002;fill:#25b5a1;fill-opacity:1;stroke:none;stroke-width:0.3267974;stroke-opacity:1"
     d="m 128.41645,207.31807 c -1.99464,-2.07593 -2.47356,-3.33471 -3.42075,-8.99091 -0.94285,-5.63025 -1.4254,-11.88166 -1.43787,-18.62745 -0.0116,-6.29918 0.32135,-8.58686 1.30485,-8.96426 0.4349,-0.16688 0.2084,-0.51611 -1.14734,-1.76903 l -1.6892,-1.5611 v -2.44758 c 0,-2.6948 -0.2824,-3.23189 -1.69934,-3.23189 -1.18373,0 -2.22222,-1.05295 -2.22222,-2.25316 0,-1.39677 -1.2351,-5.18897 -2.30414,-7.07456 -0.51388,-0.90639 -1.67626,-2.49583 -2.58307,-3.53209 -1.57346,-1.79808 -1.64874,-1.97046 -1.64874,-3.77522 0,-1.99458 -0.402,-2.66981 -1.85214,-3.11103 -1.38553,-0.42156 -2.3203,-1.41882 -2.15254,-2.29643 0.125,-0.65391 -0.0139,-0.88639 -0.68127,-1.14012 -0.97637,-0.37122 -1.62446,-1.50853 -2.52966,-4.43921 -0.71326,-2.30929 -3.11277,-6.08167 -6.848196,-10.76638 -2.208138,-2.76929 -2.32568,-3.0004 -2.134419,-4.19649 0.218889,-1.36885 0.204298,-1.38779 -3.752422,-4.87251 -1.259665,-1.1094 -1.363347,-1.31792 -1.189125,-2.39153 0.187432,-1.155 0.173967,-1.17244 -0.748714,-0.96979 -0.780213,0.17137 -1.174002,-0.005 -2.321679,-1.03984 -1.223791,-1.10347 -3.239851,-4.54102 -3.24056,-5.52543 -1.42e-4,-0.19671 -0.751515,-1.21616 -1.669718,-2.26544 l -1.669461,-1.90779 0.209771,-1.854128 c 0.204924,-1.811284 0.184977,-1.873042 -0.863219,-2.672549 -1.294434,-0.987323 -5.395222,-6.653226 -9.173355,-12.674474 -3.801465,-6.058432 -5.019322,-8.584241 -5.235162,-10.857611 -0.222795,-2.346636 -0.349232,-2.541081 -1.652333,-2.541081 -0.781986,0 -1.35022,-0.299021 -2.164258,-1.138896 -0.607124,-0.626392 -1.040383,-1.194708 -0.9628,-1.262923 0.07758,-0.06822 0.45999,-0.289784 0.849793,-0.492374 1.523561,-0.791833 1.156598,-3.591779 -0.541372,-4.130694 -1.687079,-0.535458 0.997672,-1.73989 4.73867,-2.12586 3.14074,-0.32404 6.268174,0.0078 9.473055,1.005074 2.084133,0.648542 2.214922,0.739182 1.470589,1.019151 l -0.816994,0.307299 1.167399,1.04033 c 0.642069,0.572182 2.05368,1.670259 3.136914,2.440172 1.985159,1.41096 2.507066,2.094339 2.8681,3.755456 0.21609,0.994232 2.011157,3.134948 3.544026,4.226447 l 0.975424,0.694563 -0.214934,-1.606781 c -0.20435,-1.527664 -0.191058,-1.566553 0.26994,-0.789788 0.663006,1.117141 0.625333,1.939322 -0.171388,3.740441 -0.804093,1.817787 -0.64994,2.466901 0.587465,2.473714 1.361831,0.0075 1.798605,0.408697 1.544995,1.419159 -0.192383,0.766515 -0.0932,0.915772 0.820114,1.234154 l 1.038965,0.362185 -1.165863,0.829524 c -0.641225,0.456238 -1.165863,0.935637 -1.165863,1.065332 0,0.129694 0.647993,0.398974 1.439983,0.5984 1.236231,0.311286 1.532759,0.559539 2.095664,1.754482 0.360624,0.765539 0.759023,1.906596 0.88533,2.535681 0.347353,1.729992 1.169053,2.941176 1.995379,2.941176 0.906461,0 1.753886,1.364853 2.739216,4.411765 1.045049,3.231585 2.329333,5.664594 4.060943,7.693214 1.43221,1.67788 2.32647,3.67358 1.93207,4.31174 -0.49856,0.80669 0.71961,3.29599 2.71935,5.55691 1.15426,1.30503 3.11342,3.91689 4.35367,5.80415 3.5053,5.33394 3.94075,5.90325 5.01482,6.55643 0.61928,0.37661 1.32371,0.54206 1.83529,0.43107 0.72405,-0.1571 0.65259,-0.0268 -0.55864,1.01845 -0.76389,0.65922 -1.38889,1.41398 -1.38889,1.67724 0,0.26326 0.71698,1.19563 1.59329,2.07194 0.87631,0.87631 2.16587,2.65782 2.86569,3.9589 1.4746,2.74152 2.52837,3.46034 5.75253,3.92403 1.12386,0.16163 2.77868,0.42713 3.67738,0.59 0.89869,0.16287 2.02118,0.22207 2.49442,0.13156 0.82073,-0.15698 1.06152,0.18748 5.21943,7.46666 6.58149,11.52209 12.24622,23.07421 11.62122,23.69922 -0.0647,0.0647 -0.49417,-0.17854 -0.95438,-0.54053 -1.03329,-0.81279 -1.62008,-0.8306 -2.30837,-0.0701 -1.68506,1.86197 -2.44547,7.1997 -2.82829,19.8533 -0.16884,5.58102 -0.40659,10.77019 -0.52833,11.53148 -0.40174,2.51233 -2.06024,2.35647 -3.42671,-0.32204 -1.20954,-2.37088 -1.99226,-6.89329 -3.3853,-19.55936 -0.48042,-4.3682 -0.97744,-6.53595 -1.49855,-6.53595 -0.96563,0 -1.61898,7.6106 -1.62718,18.95425 -0.006,7.83772 -0.36208,12.72773 -1.03539,14.20548 -0.62185,1.36481 -1.72331,1.07606 -3.6856,-0.9662 z"
     id="path6428"
     inkscape:connector-curvature="0"
     transform="scale(0.75000003)" />
  <path
     style="opacity:0.97000002;fill:#25b5a1;fill-opacity:1;stroke:none;stroke-width:0.3267974;stroke-opacity:1"
     d="m 67.042484,196.78647 c -0.339716,-0.0839 -0.571896,-0.44899 -0.571896,-0.89929 0,-0.41694 -0.224935,-0.84439 -0.499857,-0.94988 -0.274921,-0.1055 -2.517568,-0.10377 -4.98366,0.004 l -4.483803,0.19566 -0.902332,-0.95917 c -1.201908,-1.27762 -2.139633,-4.05691 -2.544139,-7.54048 -0.193729,-1.66837 -0.457372,-22.31928 -0.635114,-49.74788 -0.16714,-25.79249 -0.453836,-49.101309 -0.637102,-51.797388 -0.183266,-2.696078 -0.33624,-7.659313 -0.339942,-11.029411 -0.0076,-6.936286 0.07266,-7.115978 2.117084,-4.738562 2.336812,2.717432 10.13374,14.974384 19.409962,30.512909 l 3.339881,5.594612 -0.569912,2.90212 c -0.711967,3.6255 -0.796407,12.95921 -0.187383,20.71258 0.741965,9.4458 0.01818,59.47694 -0.895182,61.87927 -0.181052,0.47621 -0.525901,0.86583 -0.76633,0.86583 -0.561815,0 -1.980842,1.52316 -2.560492,2.74839 -0.741457,1.56724 -2.760161,2.62458 -4.289783,2.24687 z"
     id="path6430"
     inkscape:connector-curvature="0"
     transform="scale(0.75000003)" />
  <path
     style="opacity:0.97000002;fill:#25b5a1;fill-opacity:1;stroke:none;stroke-width:0.3267974;stroke-opacity:1"
     d="m 151.34984,150.41774 c -0.10835,-0.10835 -0.0583,-0.56187 0.11127,-1.00782 0.36008,-0.94707 0.15888,-1.40907 -0.61438,-1.41078 -1.36564,-0.003 -2.63492,-1.28536 -4.00094,-4.0421 -0.7617,-1.53717 -1.28868,-3.00571 -1.18011,-3.28863 0.14075,-0.36678 0.64525,-0.51119 1.78594,-0.51119 0.87437,0 1.69224,-0.10247 1.81748,-0.22771 0.12524,-0.12524 -0.40172,-0.77719 -1.17102,-1.44879 l -1.39873,-1.22109 1.2598,-1.05426 c 1.12786,-0.94384 1.24051,-1.17309 1.07566,-2.18895 -0.22993,-1.41687 0.3451,-2.84918 2.27186,-5.65887 1.03841,-1.51425 1.50852,-2.55049 1.57397,-3.46941 0.0522,-0.73335 0.5711,-2.15687 1.17841,-3.23301 1.2989,-2.30163 5.16413,-7.98003 6.57531,-9.65977 0.72327,-0.86091 1.05512,-1.64763 1.17172,-2.77778 0.18479,-1.79118 0.74195,-2.39369 2.21353,-2.39369 0.56038,0 1.29682,-0.20325 1.63655,-0.45166 0.56285,-0.41156 0.57927,-0.56806 0.18497,-1.7628 -0.89101,-2.69977 0.9717,-6.609071 3.14909,-6.609071 1.62933,0 2.02366,-0.571082 2.12633,-3.079379 0.0873,-2.133925 0.14816,-2.293105 1.07115,-2.80335 0.80649,-0.445843 1.05395,-0.881232 1.40738,-2.476174 0.55718,-2.514426 2.86665,-7.33598 4.60547,-9.614953 1.21476,-1.59213 1.3665,-1.983982 1.32879,-3.431373 -0.0631,-2.423657 -0.0539,-2.45098 0.8292,-2.45098 1.73103,0 4.7395,-3.697668 4.7395,-5.825262 0,-1.245062 0.86371,-2.296234 3.35231,-4.079869 1.12191,-0.804108 2.4069,-1.856794 2.85551,-2.339303 l 0.81567,-0.87729 0.17812,0.760209 c 0.25769,1.099779 1.5255,1.184313 2.47089,0.164752 0.9213,-0.993583 3.60974,-1.656824 9.51688,-2.347818 4.87313,-0.570041 8.37251,-0.626631 9.26348,-0.149803 1.44311,0.77233 0.56938,3.098291 -4.66053,12.406802 -2.07018,3.684641 -4.83225,8.684641 -6.13791,11.111111 -1.30567,2.426471 -6.32891,11.256984 -11.16276,19.623361 l -8.78881,15.2116 -1.22071,-0.1089 c -0.67139,-0.0599 -1.96538,-0.34538 -2.87555,-0.63441 -1.45352,-0.46158 -1.77157,-0.46853 -2.61437,-0.0572 -0.76039,0.37112 -0.94002,0.65218 -0.86547,1.35418 0.0517,0.48722 0.0101,0.88586 -0.0926,0.88586 -0.10264,0 -0.91214,-0.36765 -1.79889,-0.81699 -0.88674,-0.44935 -1.7642,-0.817 -1.94992,-0.817 -0.55351,0 -0.38798,0.90282 0.47934,2.61438 0.44934,0.88674 0.81699,2.01421 0.81699,2.50548 0,1.07592 -0.54704,0.65484 -0.70762,-0.54469 -0.0825,-0.61629 -0.33185,-0.84257 -1.01499,-0.92107 -2.01405,-0.23146 -4.09043,2.01122 -5.28028,5.7032 -0.51228,1.58952 -1.44574,3.10751 -5.90147,9.59695 -1.04899,1.52778 -2.97289,4.98366 -4.27534,7.67974 -1.30244,2.69608 -2.68144,5.23284 -3.06444,5.63725 -0.76405,0.80678 -0.79964,0.82442 -1.08576,0.5383 z"
     id="path6432"
     inkscape:connector-curvature="0"
     transform="scale(0.75000003)" />
  <path
     style="opacity:0.97000002;fill:#25b5a1;fill-opacity:1;stroke:none;stroke-width:0.3267974;stroke-opacity:1"
     d="m 196.7142,191.64266 c 1.00183,-1.00182 1.00927,-1.51427 0.0343,-2.36201 -0.62576,-0.54409 -0.80795,-1.11436 -0.98457,-3.0818 -0.43725,-4.87063 -0.83546,-12.46077 -1.1725,-22.34882 -0.82645,-24.24549 -1.0495,-29.67227 -1.39694,-33.98693 -0.44699,-5.55104 -0.4702,-7.01597 -0.12297,-7.76143 0.21576,-0.4632 0.1111,-0.5719 -0.5506,-0.5719 -1.02974,0 -1.21372,-0.49364 -1.21372,-3.25659 0,-1.9267 0.0846,-2.24487 0.63541,-2.3889 0.92487,-0.24186 2.41873,-2.50668 5.73714,-8.69802 3.92287,-7.319106 5.32749,-9.671467 6.73213,-11.274511 0.70391,-0.803328 1.27313,-1.863369 1.41691,-2.638659 0.34284,-1.848682 1.07677,-3.115868 1.80465,-3.115868 0.73108,0 1.13387,1.005322 0.81072,2.02348 -0.17525,0.552187 -0.0118,0.888092 0.71328,1.466184 l 0.94061,0.749893 0.0944,22.308331 c 0.10589,25.03002 -0.40001,61.38166 -0.91307,65.60897 -0.64418,5.3077 -1.79994,7.72716 -4.16283,8.71444 -1.01608,0.42455 -6.86519,1.39685 -8.48401,1.4103 -0.72016,0.006 -0.72013,0.006 0.0817,-0.79616 z"
     id="path6434"
     inkscape:connector-curvature="0"
     transform="scale(0.75000003)" />
</svg>
