<?xml version="1.0" encoding="UTF-8" standalone="no"?>
<svg
   xmlns:dc="http://purl.org/dc/elements/1.1/"
   xmlns:cc="http://creativecommons.org/ns#"
   xmlns:rdf="http://www.w3.org/1999/02/22-rdf-syntax-ns#"
   xmlns:svg="http://www.w3.org/2000/svg"
   xmlns="http://www.w3.org/2000/svg"
   xmlns:sodipodi="http://sodipodi.sourceforge.net/DTD/sodipodi-0.dtd"
   xmlns:inkscape="http://www.inkscape.org/namespaces/inkscape"
   version="1.1"
   x="0px"
   y="0px"
   viewBox="0 0 24 28"
   xml:space="preserve"
   id="svg3473"
   inkscape:version="0.92.1 15371"
   sodipodi:docname="process-stop2.svg"
   width="24"
   height="28"><metadata
     id="metadata3485"><rdf:RDF><cc:Work
         rdf:about=""><dc:format>image/svg+xml</dc:format><dc:type
           rdf:resource="http://purl.org/dc/dcmitype/StillImage" /><dc:title></dc:title></cc:Work></rdf:RDF></metadata><defs
     id="defs3483" /><sodipodi:namedview
     pagecolor="#ffffff"
     bordercolor="#666666"
     borderopacity="1"
     objecttolerance="10"
     gridtolerance="10"
     guidetolerance="10"
     inkscape:pageopacity="0"
     inkscape:pageshadow="2"
     inkscape:window-width="1920"
     inkscape:window-height="1003"
     id="namedview3481"
     showgrid="false"
     inkscape:zoom="7.552"
     inkscape:cx="57.272549"
     inkscape:cy="33.066726"
     inkscape:window-x="0"
     inkscape:window-y="24"
     inkscape:window-maximized="1"
     inkscape:current-layer="svg3473" /><path
     d="m 23.700274,0.82099077 c -0.571952,-0.666972 -1.539871,-0.666972 -2.111824,0 L 12.129239,11.851683 2.6700278,0.82099077 c -0.571952,-0.666972 -1.539871,-0.666972 -2.11182404,0 -0.571952,0.66697303 -0.571952,1.79569503 0,2.46266703 L 10.017415,14.314349 0.55820376,25.34504 c -0.571952,0.666974 -0.571952,1.795694 0,2.462667 0.307974,0.35914 0.65994504,0.513055 1.05591204,0.513055 0.395967,0 0.747938,-0.153915 1.055912,-0.513055 L 12.129239,16.777015 21.58845,27.807707 c 0.307975,0.35914 0.659945,0.513055 1.055912,0.513055 0.395967,0 0.747938,-0.153915 1.055912,-0.513055 0.571955,-0.666973 0.571955,-1.795693 0,-2.462667 L 14.241063,14.314349 23.700274,3.2836578 c 0.571955,-0.666972 0.571955,-1.795694 0,-2.46266703 z"
     id="path3475"
     inkscape:connector-curvature="0"
     style="stroke-width:0.23333289" /></svg>