<?xml version="1.0" encoding="UTF-8" standalone="no"?>
<svg
   xmlns:dc="http://purl.org/dc/elements/1.1/"
   xmlns:cc="http://creativecommons.org/ns#"
   xmlns:rdf="http://www.w3.org/1999/02/22-rdf-syntax-ns#"
   xmlns:svg="http://www.w3.org/2000/svg"
   xmlns="http://www.w3.org/2000/svg"
   xmlns:sodipodi="http://sodipodi.sourceforge.net/DTD/sodipodi-0.dtd"
   xmlns:inkscape="http://www.inkscape.org/namespaces/inkscape"
   version="1.1"
   x="0px"
   y="0px"
   viewBox="0 0 100 125"
   style="enable-background:new 0 0 100 100;"
   xml:space="preserve"
   id="svg3473"
   inkscape:version="0.91 r13725"
   sodipodi:docname="process-stop.svg"><metadata
     id="metadata3485"><rdf:RDF><cc:Work
         rdf:about=""><dc:format>image/svg+xml</dc:format><dc:type
           rdf:resource="http://purl.org/dc/dcmitype/StillImage" /></cc:Work></rdf:RDF></metadata><defs
     id="defs3483" /><sodipodi:namedview
     pagecolor="#ffffff"
     bordercolor="#666666"
     borderopacity="1"
     objecttolerance="10"
     gridtolerance="10"
     guidetolerance="10"
     inkscape:pageopacity="0"
     inkscape:pageshadow="2"
     inkscape:window-width="1215"
     inkscape:window-height="1000"
     id="namedview3481"
     showgrid="false"
     inkscape:zoom="1.888"
     inkscape:cx="50"
     inkscape:cy="62.5"
     inkscape:window-x="65"
     inkscape:window-y="24"
     inkscape:window-maximized="1"
     inkscape:current-layer="svg3473" /><path
     d="m 98.270736,2.6938329 c -2.372915,-2.9527947 -6.388619,-2.9527947 -8.761534,0 L 50.26483,51.528515 11.020458,2.6938329 c -2.3729161,-2.9527947 -6.3886183,-2.9527947 -8.7615347,0 -2.37291516,2.9527947 -2.37291516,7.9498321 0,10.9026271 L 41.503296,62.431142 2.2589233,111.26582 c -2.37291516,2.9528 -2.37291516,7.94983 0,10.90263 1.2777237,1.58997 2.7379798,2.27138 4.3807682,2.27138 1.6427871,0 3.1030432,-0.68141 4.3807665,-2.27138 L 50.26483,73.333767 89.509202,122.16845 c 1.277724,1.58997 2.73798,2.27138 4.380767,2.27138 1.642787,0 3.103043,-0.68141 4.380767,-2.27138 2.372924,-2.9528 2.372924,-7.94983 0,-10.90263 L 59.026365,62.431142 98.270736,13.59646 c 2.372924,-2.952795 2.372924,-7.9498324 0,-10.9026271 z"
     id="path3475"
     inkscape:connector-curvature="0" /></svg>