<?xml version="1.0" encoding="UTF-8" standalone="no"?>
<svg
   xmlns:dc="http://purl.org/dc/elements/1.1/"
   xmlns:cc="http://creativecommons.org/ns#"
   xmlns:rdf="http://www.w3.org/1999/02/22-rdf-syntax-ns#"
   xmlns:svg="http://www.w3.org/2000/svg"
   xmlns="http://www.w3.org/2000/svg"
   xmlns:sodipodi="http://sodipodi.sourceforge.net/DTD/sodipodi-0.dtd"
   xmlns:inkscape="http://www.inkscape.org/namespaces/inkscape"
   version="1.1"
   x="0px"
   y="0px"
   viewBox="0 0 24 27.399999"
   xml:space="preserve"
   id="svg3666"
   inkscape:version="0.92.1 15371"
   sodipodi:docname="view-refresh2.svg"
   width="24"
   height="27.4"><metadata
     id="metadata3682"><rdf:RDF><cc:Work
         rdf:about=""><dc:format>image/svg+xml</dc:format><dc:type
           rdf:resource="http://purl.org/dc/dcmitype/StillImage" /><dc:title></dc:title></cc:Work></rdf:RDF></metadata><defs
     id="defs3680" /><sodipodi:namedview
     pagecolor="#ffffff"
     bordercolor="#666666"
     borderopacity="1"
     objecttolerance="10"
     gridtolerance="10"
     guidetolerance="10"
     inkscape:pageopacity="0"
     inkscape:pageshadow="2"
     inkscape:window-width="1920"
     inkscape:window-height="1003"
     id="namedview3678"
     showgrid="false"
     inkscape:zoom="9.4049726"
     inkscape:cx="50"
     inkscape:cy="23.984282"
     inkscape:window-x="0"
     inkscape:window-y="24"
     inkscape:window-maximized="1"
     inkscape:current-layer="svg3666"
     inkscape:snap-text-baseline="false"
     inkscape:snap-page="false"
     inkscape:snap-center="false"
     inkscape:snap-object-midpoints="false"
     inkscape:snap-bbox="false"
     inkscape:bbox-nodes="true"
     inkscape:snap-bbox-midpoints="true"
     inkscape:snap-bbox-edge-midpoints="true"
     inkscape:bbox-paths="true"
     inkscape:snap-global="false" /><g
     id="g3668"
     transform="matrix(0.36260468,0,0,0.36615845,-6.0453123,-4.4554109)"><path
       d="m 44.4,24.9 c 1.8,-0.4 3,-2.1 2.7,-4 -0.3,-1.9 -2.1,-3 -4,-2.7 -12.9,2.5 -23,12.5 -25.6,25.4 -1.7,8.5 0,17.1 4.7,24.4 3,4.5 6.9,8.1 11.5,10.6 l -6.1,2.3 c -1.7,0.6 -2.6,2.6 -2,4.3 0.5,1.4 1.8,2.2 3.2,2.2 0.4,0 0.8,-0.1 1.2,-0.2 l 14.7,-5.4 c 0,0 0,0 0,0 v 0 c 0,0 0,0 0.1,0 0.2,-0.1 0.3,-0.1 0.5,-0.2 0.1,0 0.1,-0.1 0.2,-0.1 0.1,-0.1 0.2,-0.1 0.3,-0.2 0.1,-0.1 0.1,-0.1 0.2,-0.2 0.1,-0.1 0.2,-0.2 0.2,-0.3 0.1,-0.1 0.1,-0.1 0.1,-0.2 0.1,-0.1 0.1,-0.2 0.2,-0.3 0,-0.1 0.1,-0.1 0.1,-0.2 0,-0.1 0.1,-0.2 0.1,-0.4 0,-0.1 0.1,-0.2 0.1,-0.2 0,0 0,0 0,-0.1 0,-0.1 0,-0.2 0,-0.2 0,-0.1 0,-0.2 0,-0.4 0,-0.1 0,-0.2 0,-0.3 0,-0.1 0,-0.2 0,-0.3 0,-0.1 -0.1,-0.3 -0.1,-0.4 0,-0.1 0,-0.1 -0.1,-0.2 L 41.2,62.9 c -0.6,-1.7 -2.6,-2.6 -4.3,-2 -1.7,0.6 -2.6,2.6 -2,4.3 l 3,8.1 c -4,-2 -7.5,-5 -10,-8.8 -3.8,-5.7 -5.1,-12.6 -3.7,-19.3 2,-10.5 10,-18.4 20.2,-20.3 z"
       id="path3670"
       inkscape:connector-curvature="0" /><path
       d="m 55.6,75.1 c -1.8,0.4 -3,2.1 -2.7,4 0.3,1.6 1.7,2.7 3.3,2.7 0.2,0 0.4,0 0.6,-0.1 12.9,-2.5 23,-12.5 25.6,-25.4 1.7,-8.5 0,-17.1 -4.7,-24.4 -2.5,-3.8 -5.8,-7 -9.5,-9.4 -0.6,-0.4 -1.3,-0.8 -1.9,-1.2 l 3,-1.1 3.2,-1.2 c 1.7,-0.6 2.6,-2.6 2,-4.3 -0.6,-1.7 -2.6,-2.6 -4.3,-2 l -14.7,5.4 c 0,0 0,0 -0.1,0 -0.1,0 -0.2,0.1 -0.4,0.2 -0.1,0 -0.2,0.1 -0.2,0.1 -0.1,0.1 -0.2,0.1 -0.3,0.2 -0.1,0.1 -0.2,0.1 -0.2,0.2 -0.1,0.1 -0.2,0.2 -0.2,0.3 -0.1,0.1 -0.1,0.1 -0.2,0.2 -0.1,0.1 -0.1,0.2 -0.2,0.3 -0.1,0.1 -0.1,0.2 -0.2,0.3 0,0.1 -0.1,0.2 -0.1,0.3 0,0.1 -0.1,0.2 -0.1,0.4 0,0 0,0 0,0.1 0,0.1 0,0.2 0,0.2 0,0.1 0,0.2 0,0.4 0,0.1 0,0.2 0,0.3 0,0.1 0,0.2 0,0.3 0,0.1 0.1,0.3 0.1,0.4 0,0.1 0,0.1 0.1,0.2 l 5.4,14.7 c 0.5,1.4 1.8,2.2 3.2,2.2 0.4,0 0.8,-0.1 1.2,-0.2 1.7,-0.6 2.6,-2.6 2,-4.3 l -1.2,-3.2 -1.8,-4.9 c 1.1,0.6 2.2,1.2 3.2,1.9 2.6,1.8 5,4.2 6.8,6.9 3.8,5.7 5.1,12.6 3.7,19.3 -2.2,10.4 -10.2,18.3 -20.4,20.2 z"
       id="path3672"
       inkscape:connector-curvature="0" /></g></svg>